<?xml version="1.0" encoding="UTF-8" standalone="no"?>
<!-- Generator: Adobe Illustrator 27.2.0, SVG Export Plug-In . SVG Version: 6.00 Build 0)  -->

<svg
   version="1.1"
   id="Layer_1"
   x="0px"
   y="0px"
   viewBox="0 0 72.1 72.000001"
   xml:space="preserve"
   sodipodi:docname="6e5d85204229615f52282e621bb84e9a.svg"
   width="72.099998"
   height="72"
   xmlns:inkscape="http://www.inkscape.org/namespaces/inkscape"
   xmlns:sodipodi="http://sodipodi.sourceforge.net/DTD/sodipodi-0.dtd"
   xmlns="http://www.w3.org/2000/svg"
   xmlns:svg="http://www.w3.org/2000/svg"><defs
   id="defs13"><sodipodi:namedview
   id="namedview11"
   pagecolor="#ffffff"
   bordercolor="#666666"
   borderopacity="1.0"
   inkscape:pageshadow="2"
   inkscape:pageopacity="0.0"
   inkscape:pagecheckerboard="0">
<style
   type="text/css"
   id="style2">
	.st0{fill:#002555;}
</style>
<g
   id="g8"
   transform="translate(-1.8,-1.8)">
	<path
   class="st0"
   d="M 20.4,1.8 8.3,6.1 V 16 H 1.8 v 9.1 h 6.5 v 29.7 c 0,8.4 1.4,12.7 4.1,15.5 2.4,2.5 5.9,3.5 9.7,3.5 3.4,0 6.1,-0.4 7.9,-0.9 l -0.2,-9.7 c -1.2,0.2 -2.4,0.3 -3.7,0.3 -3,0 -5.6,-1.8 -5.6,-8.8 V 25.1 H 31.1 V 16 H 20.4 Z"
   id="path4">
	<path
   class="st0"
   d="m 59.7,15.1 c -5.8,0 -10.4,3.1 -13,7.6 H 46.5 L 45.9,16 H 35.4 c 0.2,5 0.5,9.6 0.5,16.1 v 41 H 48 V 37.8 c 0,-2.1 0.2,-4 0.6,-5.2 1.1,-4.7 3.8,-7 6.8,-7 5.3,0 6.4,5.6 6.4,11.3 V 73.1 H 73.9 V 35.7 C 73.8,22.4 68.9,15.1 59.7,15.1 Z"
   id="path6">
</g>
</svg>
