<?xml version="1.0" encoding="utf-8"?>
<!-- Generator: Adobe Illustrator 28.0.0, SVG Export Plug-In . SVG Version: 6.00 Build 0)  -->
<svg version="1.1"
	 id="Layer_1" xmlns:svg="http://www.w3.org/2000/svg" xmlns:sodipodi="http://sodipodi.sourceforge.net/DTD/sodipodi-0.dtd" xmlns:inkscape="http://www.inkscape.org/namespaces/inkscape" sodipodi:docname="ccffbb509eadc02baf996bca8bf4dd2f.svg"
	 xmlns="http://www.w3.org/2000/svg" xmlns:xlink="http://www.w3.org/1999/xlink" x="0px" y="0px" viewBox="0 0 72.1 72"
	 style="enable-background:new 0 0 72.1 72;" xml:space="preserve">
<style type="text/css">
	.st0{fill:#FFFFFF;}
</style>
<sodipodi:namedview  bordercolor="#666666" borderopacity="1.0" id="namedview11" inkscape:pagecheckerboard="0" inkscape:pageopacity="0.0" inkscape:pageshadow="2" pagecolor="#ffffff">
	</sodipodi:namedview>
<path class="st0" d="M66.49,19.93l0.02-0.03c-5.65-2.41-11.33-3.48-19.37-3.07c-5.05,0.32-10.08,0.98-15.04,1.97
	c-0.1-0.21-0.13-0.45-0.09-0.67c0.02-0.08,0.04-0.16,0.05-0.24v-0.03c0.06-0.45,0.04-0.91-0.05-1.35c0.01-0.12,0-0.23-0.03-0.35
	c-0.09-0.57-0.26-1.12-0.48-1.65c-0.19-0.54-0.4-1.06-0.61-1.58c-0.14-0.59-0.39-1.14-0.74-1.63c-0.15-0.13-0.19-0.35-0.09-0.52
	c0.18-0.26,0.38-0.51,0.61-0.74h0.02l0.09-0.1c0.07-0.16,0.12-0.32,0.17-0.48c0.05-0.04,0.12-0.04,0.17,0
	c0.25,0.1,0.5,0.17,0.76,0.21c0.12-0.01,0.25-0.04,0.36-0.09l0.31-0.07c0.12-0.03,0.16-0.29,0.21-0.5c0.01-0.26-0.02-0.51-0.09-0.76
	l0-0.12c-0.03-0.24,0.19-0.49,0.02-0.74c-0.17-0.26,0.02-0.1,0.05-0.12c0.03-0.02,0.24-0.19,0.26-0.28c0.02-0.1-0.03-0.19-0.02-0.35
	c0.02-0.16,0.38-0.07,0.49-0.16c0.06-0.04,0.09-0.1,0.1-0.17c0-0.06-0.02-0.12-0.05-0.17c-0.19-0.35-0.74-1.13-0.59-1.27l0.12-0.03
	L33,4.76c0.24-0.21,0.26-0.28,0.12-0.61c-0.14-0.45-0.25-0.91-0.33-1.37c0.03-0.31,0.09-0.19,0.09-0.26c0-0.08-0.02-0.17-0.05-0.24
	c-0.03-0.05,0-0.09-0.03-0.21c-0.03-0.12,0.03-0.17-0.03-0.19c-0.09-0.07-0.17-0.15-0.24-0.24c-0.03-0.05-0.02-0.09-0.09-0.16
	s-0.07-0.05-0.14-0.09c-0.07-0.03-0.02-0.09,0-0.16c0.02-0.07-0.05-0.07-0.12-0.07c-0.07,0-0.09-0.07-0.14-0.1l-0.26-0.19
	l-0.14-0.07l-0.23-0.09c-0.07-0.03,0-0.16,0-0.19c0-0.03-0.02-0.1-0.07-0.09s-0.07,0.19-0.12,0.19c-0.05,0-0.19-0.16-0.23-0.17
	l-0.21-0.09l-0.24-0.07c-0.05,0-0.09,0.09-0.12,0.1s-0.07-0.03-0.09-0.09c-0.02-0.05-0.05-0.05-0.09-0.07
	c-0.03,0.09-0.12,0.14-0.21,0.12c-0.12-0.05-0.24-0.09-0.36-0.12c-0.12-0.04-0.24-0.05-0.36-0.03C29.21,0.23,29.1,0.21,29,0.17
	l-0.15-0.08c-0.05,0.14-0.36,0.14-0.36,0.14s0.02-0.19,0.09-0.21l0,0c0.05-0.01,0.09-0.01,0.14,0C28.66,0.01,28.6,0,28.55,0.01
	c-0.08,0.02-0.14,0.08-0.16,0.16c0,0.06,0,0.13-0.02,0.19L28.2,0.45c-0.05,0.03-0.07,0.1-0.1,0.07c-0.03-0.03,0-0.14,0.02-0.16
	c0.02-0.02-0.02-0.07-0.03-0.05l-0.12,0.03l-0.09-0.07c-0.01,0.07-0.01,0.15,0,0.23c0,0.03-0.05,0.16-0.07,0.16s-0.02-0.07-0.03-0.1
	c-0.02-0.05-0.02-0.09,0-0.14c0.02-0.03-0.05-0.05-0.09-0.03c-0.05,0.02-0.08,0.06-0.1,0.1c-0.02,0.03-0.02,0.16-0.03,0.17
	c-0.02,0.02-0.05,0-0.09,0.02c-0.03,0.02-0.06,0.05-0.07,0.09L27.3,0.88c-0.02,0.03-0.02,0.14-0.03,0.14
	c-0.05-0.02-0.08-0.07-0.09-0.12c0-0.05-0.1-0.05-0.14-0.05s0.03,0.12,0.03,0.14s0.02,0.12-0.03,0.12c-0.05,0-0.05-0.05-0.07-0.1
	c-0.02-0.03-0.07-0.05-0.1-0.03c-0.03,0.02,0,0.1-0.05,0.12c-0.05,0.02-0.05-0.02-0.1,0l-0.19,0.07c-0.09,0.03-0.12,0.1-0.17,0.19
	c-0.04,0.08-0.03,0.18,0.02,0.26c0.05,0.07,0.17,0.26,0.16,0.29c-0.02,0.03-0.1-0.02-0.16-0.05c-0.05-0.04-0.09-0.09-0.1-0.16
	c-0.02-0.03-0.03-0.1-0.05-0.07c-0.01,0.06-0.01,0.12,0,0.17c0,0.03-0.05,0.02-0.05,0.02s-0.09-0.05-0.12-0.03
	c-0.03,0.02,0.1,0.14,0.1,0.14l0.05,0.1h-0.07l-0.14-0.07c-0.02,0-0.1,0.02-0.07,0.02C26,2.06,26.06,2.16,26.1,2.26
	c0.02,0.04,0.03,0.08,0.01,0.13c-0.01,0.04-0.04,0.08-0.08,0.1c-0.11,0.12-0.19,0.27-0.21,0.43c-0.02,0.14-0.09,0.12-0.16,0.26
	c-0.05,0.12-0.03,0.26,0.05,0.36c0.05,0.05,0.02,0.12,0,0.29c-0.01,0.17,0.02,0.33,0.09,0.49c0.05,0.13,0.07,0.26,0.07,0.4
	c0,0.12,0.16,0.31,0.16,0.47c0.02,0.17,0.08,0.33,0.17,0.47c0.05,0.03,0.05,0.14,0.07,0.21c0.02,0.08,0.02,0.16,0,0.24
	c-0.01,0.06,0.02,0.12,0.07,0.16c0.03,0.02,0.09,0.16,0.1,0.19c0.03,0.1,0.06,0.19,0.07,0.29c0,0.06,0.02,0.12,0.05,0.17
	c0.03,0.18,0.05,0.36,0.05,0.54c0.02,0.1,0.16,0.1,0.16,0.1c0.09,0.49,0,0.99-0.24,1.42c-0.21,0.24-1.21,0.9-1.58,1.25
	c-0.34,0.45-0.63,0.94-0.85,1.46c-0.5,1.03-0.79,2.16-0.83,3.31c-0.12,1.23,0.95,3.31,1.01,3.41c0.08,0.62,0.19,1.24,0.33,1.85
	c0.03,0.25,0.03,0.5,0,0.74l-9.32,3.18c0,0-0.36-0.07-0.38-0.16c-0.02-0.09-0.09-0.23-0.19-0.23c-0.13,0.04-0.24,0.09-0.35,0.17
	c-0.18,0.02-0.36,0.03-0.54,0.03c-0.26,0-0.81-0.16-1.32-0.17c-0.31-0.03-0.59,0.17-0.68,0.47c-0.64-0.09-1.29-0.01-1.89,0.23
	c-0.19,0.09-0.48,0.45,0.17,0.45c0.51,0,1.01,0.05,1.51,0.16c0.09,0.03,0.16,0.55,0.21,0.73c-2.09,1.21-4.09,2.58-5.98,4.09
	c-0.59-0.06-1.19,0.09-1.68,0.43c-0.16,0.19-0.1,0.43,0.14,0.4c0.33-0.01,0.66,0,0.99,0.05c-0.11,1.08-0.15,2.16-0.1,3.24
	c0.03,0.61,0.66,0.83,1.25,1.01l0.66,0.14l0.07,1.63H7.3v0.61c0,0,0.1,0.69,0.12,0.78c0.02,0.09-0.09,0.31,0,0.31
	c0.09,0,0.33-0.24,0.38-0.21c0.05,0.03,0.1,0.12,0.07,0.16c-0.06,0.03-0.08,0.1-0.05,0.16c0.03,0.09,0.5,1.46,0.61,1.65
	c0.02,0.04,0.06,0.07,0.1,0.09c0.44,1.08,1.06,2.08,1.82,2.96l0.36,0.36c0,0,0.68,0.56,1.14,0.75c0.41,0.19,0.86,0.29,1.32,0.29
	c0.33,0,0.66-0.05,0.97-0.14l0.5-0.19c0,0,0.6-0.28,1.14-0.69c0.99-0.78,1.68-1.89,1.96-3.12c0.36-1.83-0.26-3.72-1.65-4.97
	c3.86-0.19,8.07-0.74,8.07-0.74c-0.11,0.38-0.18,0.78-0.19,1.18c0.01,0.42,0.1,0.83,0.28,1.21c0.03,0.16-0.09,0.47-0.09,0.94
	c0.06,0.47,0.16,0.93,0.29,1.39c0,0.09-0.16,0.8-0.29,1.94c-0.09,0.68-0.01,1.37,0.23,2.01c-0.01,0.4-0.08,0.79-0.19,1.18
	c-0.14,0.6-0.32,1.2-0.52,1.78c0,0-0.19,0.63-0.27,1.04c-0.11,0.47-0.17,0.94-0.17,1.42c0,1.7,1.13,5.3,1.37,7.19
	c0.18,1.19-0.05,2.41-0.64,3.47c-3.86-0.94-5.91-0.64-5.46-0.35c0.45,0.29-1.66,0.47-2.53,0.85c-0.87,0.38-1.59,2.39-1.42,2.39
	s-0.92,1.28-2.39,1.11c-1.47-0.17-4.04,0.36-3.12,1.11C9.97,65.5,4.41,69.63,4,72h52c-1.32-1.32-2.8-2.47-4.4-3.43
	c-4.31-0.33-8.25-4.92-10.12-3.53c-2.37-0.61-4.44-1.2-6.55-1.84c0.06-0.09,0.09-0.2,0.09-0.31h0.02c0.05-0.24-0.09-0.35-0.29-0.35
	c-0.23-0.02-0.43-0.13-0.59-0.29c-0.09-0.1-0.2-0.17-0.33-0.21c-0.55-0.2-1.07-0.48-1.54-0.83c-0.42-0.23-0.78-0.57-1.04-0.97
	c-0.08-0.14-0.2-0.25-0.35-0.33c-0.4-0.2-0.73-0.53-0.94-0.94c-0.4-0.87-0.73-1.78-0.97-2.7c-0.05-0.29-0.09-0.57-0.14-0.87
	c-0.05-0.29-0.1-0.99-0.14-1.3c0-0.03-0.02-0.28-0.03-0.48c0-0.64,0.05-1.35,0.12-2.25c0.16-1.94,0.17-2.58,0.17-3.36
	c0.01-0.87,0.12-1.74,0.35-2.58c0.38-0.77,0.71-1.57,0.97-2.39h0.03l1.25,0.1h0.09c0.17-0.03,0.12-0.16,0.12-0.24
	c0.03-0.29,0.07-0.58,0.14-0.87c0.08-0.48,0.12-0.97,0.12-1.46c0.01-0.47,0.06-0.94,0.16-1.4c0.07-0.46,0.11-0.93,0.13-1.39h0.02
	c0.07-0.14,0.09-0.31,0.07-0.47c-0.01-0.32,0.01-0.65,0.05-0.97h-0.02c0.03-0.24,0.09-0.61,0.1-0.76c0.02-0.16,0.28-1.87,0.35-2.15
	c4.8-0.81,9.55-1.91,14.23-3.28c9.3-2.65,18.25-7.55,19.37-8.09C67.62,21.52,68.1,20.69,66.49,19.93z M26.71,1.34l-0.1,0.1
	l-0.12-0.03c0-0.11,0.07-0.2,0.17-0.23C26.74,1.15,26.71,1.34,26.71,1.34z M17.53,40.6l-0.01-0.02c-0.25,1.12-0.86,2.13-1.73,2.88
	c-0.39,0.38-1.14,0.73-1.14,0.73l-0.57,0.21c-0.74,0.23-1.53,0.16-2.22-0.19c-0.56-0.29-1.14-0.83-1.14-0.83l-0.19-0.21
	c-0.75-0.87-1.35-1.85-1.78-2.91c0.02-0.05,0.02-0.09,0-0.14c-0.07-0.23-0.4-1.68-0.45-1.72c-0.05-0.03-0.12,0.02-0.14-0.03
	s-0.03-0.14,0.02-0.14c0.05,0,0.12,0.09,0.19,0.12c0.06,0.01,0.12,0.01,0.17,0c0.02,0-0.05-1.92-0.05-1.92s0.12,0.03,0.1-0.09
	c-0.02-0.12-0.03-0.62-0.03-0.92c2.12,0.26,4.26,0.35,6.4,0.28c0,0.09,0,0.17,0.03,0.19c0.06,0.05,0.14,0.06,0.21,0.03
	c0.03-0.02,0.07-0.14,0.09-0.24h0.52C17.22,36.89,17.88,38.77,17.53,40.6z M26.92,1.41l-0.05-0.1l0.05-0.1H27L26.92,1.41z
	 M27.47,1.01c0,0-0.14,0-0.12-0.03c0.03-0.07,0.07-0.13,0.12-0.19V1.01z">
</svg>
