<?xml version="1.0" encoding="UTF-8"?>
<svg id="Layer_1" xmlns="http://www.w3.org/2000/svg" version="1.1" viewBox="0 0 43.2 43.2">
  <!-- Generator: Adobe Illustrator 30.1.0, SVG Export Plug-In . SVG Version: 2.1.1 Build 136)  -->
  <path d="M11.183,0L3.929,2.604v5.909H0v5.489h3.929v17.802c0,5.063.814,7.595,2.441,9.287,1.424,1.477,3.525,2.109,5.83,2.109,2.033,0,3.659-.211,4.745-.561l-.136-5.84c-.746.141-1.424.209-2.237.209-1.83,0-3.389-1.057-3.389-5.276V14.002h6.372v-5.489h-6.372V0Z" fill="#002555"/>
  <path d="M34.726,7.95c-3.457,0-6.235,1.831-7.794,4.574h-.136l-.338-4.011h-6.306c.136,3.027.272,5.77.272,9.641v24.626h7.254v-21.179c0-1.266.136-2.392.34-3.097.676-2.814,2.302-4.221,4.065-4.221,3.187,0,3.865,3.377,3.865,6.755v21.742h7.252v-22.445c0-7.951-2.915-12.384-8.474-12.384Z" fill="#002555"/>
</svg>