<?xml version="1.0" encoding="utf-8"?>
<!-- Generator: Adobe Illustrator 25.0.1, SVG Export Plug-In . SVG Version: 6.00 Build 0)  -->
<svg version="1.1" id="Layer_1" xmlns="http://www.w3.org/2000/svg" xmlns:xlink="http://www.w3.org/1999/xlink" x="0px" y="0px"
	 width="141px" height="29.7px" viewBox="0 0 141 29.7" enable-background="new 0 0 141 29.7" xml:space="preserve">
<g>
	<path fill="#002555" d="M5.6,3.9V9h3.8v3.3H5.6v10.6c0,2.5,0.9,3.2,2,3.2c0.5,0,0.9,0,1.3-0.1L9,29.3c-0.6,0.2-1.6,0.3-2.8,0.3
		c-1.4,0-2.6-0.4-3.4-1.3c-1-1-1.4-2.5-1.4-5.5V12.2H-1V9h2.3V5.4L5.6,3.9z"/>
	<path fill="#002555" d="M10.5,0.3h4.3v10.8h0.1c0.4-0.7,1-1.3,1.7-1.8c0.7-0.5,1.6-0.8,2.6-0.8c3.1,0,4.8,2.7,4.8,7.9v12.9h-4.3
		V16.6c0-2.2-0.4-4.2-2.2-4.2c-1.1,0-2,0.8-2.5,2.5c-0.1,0.4-0.2,1-0.2,1.6v12.9h-4.3V0.3z"/>
	<path fill="#002555" d="M29.9,20.4c0,4.6,2.1,5.8,4.3,5.8c1.4,0,2.6-0.3,3.5-0.8l0.6,3.2c-1.2,0.6-3.1,1-4.9,1
		c-5,0-7.7-3.8-7.7-10.2c0-6.8,3.1-10.9,7.3-10.9c4.1,0,6.1,3.9,6.1,9.4c0,1.2-0.1,1.8-0.1,2.4h-9.1V20.4z M35.2,17.2
		c0-3.3-1-5.2-2.5-5.2c-1.8,0-2.7,2.8-2.8,5.2H35.2z"/>
	<path fill="#002555" d="M40.9,14.7c0-1.9-0.1-4-0.2-5.8h3.7l0.2,3.1h0.1c0.8-2.1,2.4-3.4,4-3.4c0.4,0,0.6,0,0.9,0.1v4.5
		c-0.2-0.1-0.5-0.1-0.9-0.1c-1.5,0-3,1.3-3.4,3.5c-0.1,0.5-0.2,1.2-0.2,2v10.8h-4.3V14.7H40.9z"/>
	<path fill="#002555" d="M63.8,19.1c0,8.3-4,10.6-7,10.6c-4.1,0-6.9-3.6-6.9-10.5c0-7.4,3.5-10.6,7.1-10.6
		C61,8.6,63.8,12.4,63.8,19.1 M54.1,19.2c0,3.4,0.6,7.1,2.8,7.1c2.1,0,2.6-4.1,2.6-7.1s-0.5-7.1-2.7-7.1
		C54.6,12.1,54.1,16.2,54.1,19.2"/>
	<path fill="#002555" d="M65.7,14.7c0-2.3-0.1-3.9-0.2-5.8h3.7l0.2,2.4h0.1c0.9-1.6,2.6-2.7,4.6-2.7c3.3,0,5,2.6,5,7.4v13.4h-4.3
		v-13c0-2-0.4-4-2.3-4c-1,0-2,0.8-2.4,2.5c-0.1,0.4-0.2,1.1-0.2,1.8v12.6h-4.3V14.7H65.7z"/>
	<path fill="#002555" d="M87.4,14.7c0-2.3-0.1-3.9-0.2-5.8h3.7l0.2,2.4h0.1c0.9-1.6,2.6-2.7,4.6-2.7c3.3,0,5,2.6,5,7.4v13.4h-4.3
		v-13c0-2-0.4-4-2.3-4c-1,0-2,0.8-2.4,2.5c-0.1,0.4-0.2,1.1-0.2,1.8v12.6h-4.3V14.7H87.4z"/>
	<path fill="#002555" d="M106.7,20.4c0,4.6,2.1,5.8,4.4,5.8c1.4,0,2.6-0.3,3.5-0.8l0.6,3.2c-1.2,0.6-3.1,1-4.9,1
		c-5,0-7.7-3.8-7.7-10.2c0-6.8,3.1-10.9,7.3-10.9c4.1,0,6.1,3.9,6.1,9.4c0,1.2-0.1,1.8-0.1,2.4h-9.2V20.4z M112,17.2
		c0-3.3-1-5.2-2.5-5.2c-1.8,0-2.7,2.8-2.8,5.2H112z"/>
	<path fill="#002555" d="M118.7,29.4V12.2h-2.5V9h2.5V8c0-2.3,0.4-4.5,1.9-6.1c1.2-1.3,2.8-1.8,4.3-1.8c1.2,0,2.2,0.2,2.8,0.5
		L127.1,4c-0.4-0.2-1-0.3-1.6-0.3c-2,0-2.6,2-2.6,4.2V9h3.4v3.3h-3.4v17.2h-4.2V29.4z"/>
	<path fill="#002555" d="M131,29.4V12.2h-2.5V9h2.5V8c0-2.3,0.4-4.5,1.9-6.1c1.2-1.3,2.8-1.8,4.3-1.8c1.2,0,2.2,0.2,2.8,0.5L139.4,4
		c-0.4-0.2-1-0.3-1.6-0.3c-2,0-2.6,2-2.6,4.2V9h3.4v3.3h-3.4v17.2H131V29.4z"/>
</g>
</svg>
