<?xml version="1.0" encoding="utf-8"?>
<!-- Generator: Adobe Illustrator 27.2.0, SVG Export Plug-In . SVG Version: 6.00 Build 0)  -->
<svg version="1.1" id="Layer_1" xmlns="http://www.w3.org/2000/svg" xmlns:xlink="http://www.w3.org/1999/xlink" x="0px" y="0px"
	 viewBox="0 0 250 50.7" style="enable-background:new 0 0 250 50.7;" xml:space="preserve">
<style type="text/css">
	.st0{opacity:0.33;}
	.st1{fill:#FFFFFF;}
</style>
<g class="st0">
	<path class="st1" d="M17.3,6.8l-7.2,2.6v5.9H6.2v5.5h3.9v17.9c0,5.1,0.8,7.6,2.4,9.3c1.4,1.5,3.5,2.1,5.8,2.1c2,0,3.6-0.2,4.7-0.6
		l-0.1-5.9C22.1,44,21.5,44,20.7,44c-1.8,0-3.4-1.1-3.4-5.3V20.9h6.3v-5.5h-6.3C17.3,15.4,17.3,6.8,17.3,6.8z">
	<path class="st1" d="M40.1,14.8c-1.7,0-3.2,0.5-4.4,1.3c-1.1,0.7-2.1,1.8-2.8,3h-0.1V0.9h-7.2v49h7.2V28c0-0.8,0.1-2,0.3-2.6
		c0.7-2.9,2.3-4.2,4.2-4.2c3,0,3.8,3.4,3.8,7.1v21.5h7.2V28C48.2,19.3,45.3,14.8,40.1,14.8z">
	<path class="st1" d="M63.5,14.8c-7,0-12.2,6.9-12.2,18.3c0,10.7,4.6,17.1,13,17.1c3,0,6.2-0.6,8.2-1.6l-1-5.5
		c-1.5,0.7-3.5,1.3-5.9,1.3c-3.8,0-7.3-2.1-7.3-9.8h15.4c0.1-0.9,0.2-2.1,0.2-4C73.8,21.4,70.3,14.8,63.5,14.8z M58.3,29.2
		c0.1-4,1.5-8.8,4.6-8.8c2.6,0,4.3,3.3,4.2,8.8H58.3z">
	<path class="st1" d="M83.4,20.6h-0.2l-0.4-5.2h-6.3c0.1,3,0.3,6.5,0.3,9.7v24.8H84V31.6c0-1.3,0.1-2.5,0.3-3.3
		c0.7-3.8,3.3-5.9,5.8-5.9c0.6,0,1.1,0,1.5,0.1v-7.6c-0.4-0.1-0.8-0.1-1.5-0.1C87.3,14.8,84.7,17.1,83.4,20.6z">
	<path class="st1" d="M103.9,14.8c-6.1,0-12,5.4-12,17.9c0,11.6,4.8,17.7,11.7,17.7c5,0,11.8-4,11.8-17.9
		C115.4,21.2,110.7,14.8,103.9,14.8z M103.9,44.6c-3.8,0-4.8-6.2-4.8-12c0-5,0.7-11.9,4.6-11.9c3.7,0,4.5,6.9,4.5,11.9
		C108.3,37.7,107.5,44.6,103.9,44.6z">
	<path class="st1" d="M132.7,14.8c-3.4,0-6.2,1.8-7.7,4.6h-0.1l-0.3-4h-6.3c0.1,3,0.3,5.8,0.3,9.7v24.8h7.2V28.5
		c0-1.3,0.1-2.4,0.3-3.1c0.7-2.8,2.3-4.2,4-4.2c3.2,0,3.8,3.4,3.8,6.8v21.9h7.2V27.3C141.1,19.3,138.2,14.8,132.7,14.8z">
	<path class="st1" d="M169.3,14.8c-3.4,0-6.2,1.8-7.7,4.6h-0.1l-0.3-4h-6.3c0.1,3,0.3,5.8,0.3,9.7v24.8h7.2V28.5
		c0-1.3,0.1-2.4,0.3-3.1c0.7-2.8,2.3-4.2,4-4.2c3.2,0,3.8,3.4,3.8,6.8v21.9h7.2V27.3C177.7,19.3,174.8,14.8,169.3,14.8z">
	<path class="st1" d="M193,14.8c-7,0-12.2,6.9-12.2,18.3c0,10.7,4.6,17.1,13,17.1c3,0,6.2-0.6,8.2-1.6l-1-5.5
		c-1.5,0.7-3.5,1.3-5.8,1.3c-3.8,0-7.3-2.1-7.3-9.8h15.4c0.1-0.9,0.2-2.1,0.2-4C203.3,21.4,199.8,14.8,193,14.8z M187.8,29.2
		c0.1-4,1.5-8.8,4.6-8.8c2.6,0,4.3,3.3,4.2,8.8H187.8z">
	<path class="st1" d="M211.1,3.4c-2.5,2.8-3.2,6.4-3.2,10.3v1.7h-4.2v5.5h4.2v29h7.2v-29h5.8v-5.5h-5.8v-1.8c0-3.7,1-7,4.3-7
		c1.1,0,2.1,0.2,2.8,0.5l0.9-5.9c-1.1-0.4-2.7-0.8-4.8-0.8C215.7,0.3,213,1.2,211.1,3.4z">
	<path class="st1" d="M241.6,15.4h-5.8v-1.8c0-3.7,1-7,4.3-7c1.1,0,2.1,0.2,2.8,0.5l0.9-5.9c-1.1-0.4-2.7-0.8-4.8-0.8
		c-2.6,0-5.3,0.9-7.3,3.1c-2.5,2.8-3.2,6.4-3.2,10.3v1.7h-4.2V21h4.2v29h7.2V21h5.8v-5.6H241.6z">
</g>
</svg>
